<svg width="267" height="81" viewBox="0 0 267 81" fill="none" xmlns="http://www.w3.org/2000/svg">
<path d="M56.07 75H43.02L39.42 63.93H17.91L14.4 75H1.35L21.87 16.32C22.77 14.28 23.76 12.87 24.84 12.09C25.98 11.31 27.36 10.92 28.98 10.92C30.6 10.92 31.89 11.28 32.85 12C33.87 12.72 34.77 14.16 35.55 16.32L56.07 75ZM36.54 53.4L28.98 28.02L21.06 53.4H36.54ZM77.3726 75H64.8626V10.92H77.3726V75ZM139.624 36.75L128.104 61.05C126.424 64.29 124.324 65.91 121.804 65.91C119.344 65.91 117.274 64.2 115.594 60.78L103.894 36.75V75H91.3845V10.92H103.714L121.804 47.91L139.804 10.92H152.134V75H139.624V36.75Z" fill="#454545"/>
<path d="M173.48 37H169.844L169.196 35.704C168.668 36.184 168.164 36.52 167.684 36.712C167.228 36.904 166.532 37 165.596 37H162.464C161.408 35.992 160.568 34.672 159.944 33.04C159.344 31.408 159.044 29.584 159.044 27.568C159.044 25.528 159.344 23.8 159.944 22.384C160.568 20.968 161.444 19.708 162.572 18.604H165.668C166.94 18.604 167.948 18.94 168.692 19.612V11.8H173.48V37ZM168.692 22.384H165.236C164.348 23.896 163.904 25.756 163.904 27.964C163.904 30.148 164.336 31.9 165.2 33.22H168.692V22.384ZM176.564 37V18.604H181.316V37H176.564ZM176.564 11.8H181.316V16.66H176.564V11.8ZM198.335 18.604V35.092C198.335 36.916 198.095 38.38 197.615 39.484C197.159 40.588 196.235 41.56 194.843 42.4H186.635V38.656H192.791C193.391 38.296 193.691 37.72 193.691 36.928V34.804C192.803 35.548 191.387 35.92 189.443 35.92H186.815C184.871 33.592 183.899 30.892 183.899 27.82C183.899 25.612 184.211 23.812 184.835 22.42C185.459 21.004 186.371 19.732 187.571 18.604H190.235C191.795 18.604 193.031 19.108 193.943 20.116L194.591 18.604H198.335ZM193.547 22.384H190.055C189.191 23.872 188.759 25.588 188.759 27.532C188.759 29.452 189.131 31.036 189.875 32.284H193.547V22.384ZM201.278 37V18.604H206.03V37H201.278ZM201.278 11.8H206.03V16.66H201.278V11.8ZM210.198 28.972V22.384H207.714V18.604H210.198V13.6H214.986V18.604H217.938V22.384H214.986V30.124C214.986 31.588 215.238 32.62 215.742 33.22H217.938V37H212.826C211.554 35.824 210.786 34.552 210.522 33.184C210.306 32.032 210.198 30.628 210.198 28.972ZM228.833 28.684H224.981C224.477 29.308 224.225 30.088 224.225 31.024C224.225 31.96 224.489 32.692 225.017 33.22H228.833V28.684ZM221.093 18.604H230.021C231.461 19.468 232.409 20.464 232.865 21.592C233.321 22.696 233.549 24.208 233.549 26.128V31.528C233.549 33.52 233.597 35.344 233.693 37H229.589L228.941 35.704C228.005 36.568 226.685 37 224.981 37H222.713C220.673 35.656 219.653 33.724 219.653 31.204C219.653 28.66 220.697 26.656 222.785 25.192H226.169C227.105 25.192 227.981 25.48 228.797 26.056V24.256C228.797 23.32 228.389 22.696 227.573 22.384H221.093V18.604ZM241.398 11.8V37H236.646V11.8H241.398Z" fill="#05AFA5"/>
</svg>
